# xmcd
#
# Track frame offsets: 
#        150
#        17915
#        29242
#        57819
#        69154
#        87749
#        103380
#        130626
#        144208
#        151960
#        162964
#        171086
#        182230
#        184554
#        201142
#        217295
#        227717
#        236788
#        248323
#        266702
#
# Disc length: 3713 seconds
#
# Revision: 1
# Processed by: cddbd v1.5.2PL0 Copyright (c) Steve Scherf et al.
# Submitted via: ExactAudioCopy v0.95b3
#
DISCID=1f0e7f14
DTITLE=Don Spencer - Cooee
DYEAR=2001
DGENRE=Folklore
TTITLE0=Lyrebird the Mimic
TTITLE1=Cooee
TTITLE2=Gudjingga
TTITLE3=Didgeridoo Song
TTITLE4=mangarryi Song
TTITLE5=Botany Bay
TTITLE6=Early Settlement
TTITLE7=Waltzing Mathilda
TTITLE8=Aussie Cowboy Tradition
TTITLE9=Clancy of the OVerflow
TTITLE10=The Dying Stockman
TTITLE11=Tie Me Kangaroo Down
TTITLE12=Intro to Mulga Bill
TTITLE13=Mulga Bill's Bicycle
TTITLE14=Boomerang and Lizard Man
TTITLE15=Boomerang
TTITLE16=Koala and the Gum Trees
TTITLE17=Home Among the Gum Trees
TTITLE18=Kookaburran and The Sun Lady
TTITLE19=Kookaburra Song
EXTD=great album for homesick Australians
EXTT0=
EXTT1=
EXTT2=
EXTT3=
EXTT4=
EXTT5=
EXTT6=
EXTT7=
EXTT8=
EXTT9=
EXTT10=
EXTT11=
EXTT12=
EXTT13=
EXTT14=
EXTT15=
EXTT16=
EXTT17=
EXTT18=
EXTT19=
PLAYORDER=
